<?xml version="1.0" encoding="utf-8"?>
<!-- Generator: Adobe Illustrator 19.2.1, SVG Export Plug-In . SVG Version: 6.00 Build 0)  -->
<svg version="1.1" id="Layer_1" xmlns="http://www.w3.org/2000/svg" xmlns:xlink="http://www.w3.org/1999/xlink" x="0px" y="0px"
	 width="682px" height="148.6px" viewBox="0 0 682 148.6" style="enable-background:new 0 0 682 148.6;" xml:space="preserve">
<style type="text/css">
	.st0{fill:#041e3a;}
</style>
<g id="XMLID_31_">
	<g id="XMLID_1_">
		<path id="XMLID_27_" class="st0" d="M78.5,139.3c1.8-0.3,3.2-1,4.3-2.1c1.1-1.2,1.7-2.7,1.7-4.7c0-2.2-0.7-4-2.1-5.3s-3.3-2-5.7-2
			H58.6v23h3.8v-8.8H74l6.2,8.8h4.4L78.5,139.3z M62.4,136v-7.4h13.4c3.2,0,4.8,1.3,4.8,3.8c0,2.4-1.5,3.6-4.4,3.6L62.4,136
			L62.4,136z"/>
		<path id="XMLID_30_" class="st0" d="M126,125.2h-4.8l-12.2,23h4.2l2.7-5.2h15.5l2.7,5.2h4.2L126,125.2z M117.7,139.7l5.9-11.2
			l5.9,11.2H117.7z"/>
		<polygon id="XMLID_23_" class="st0" points="164.3,125.2 164.3,148.2 185.9,148.2 185.9,144.8 168.1,144.8 168.1,125.2 		"/>
		<path id="XMLID_36_" class="st0" d="M236,127.2c-1.4-1.3-3.3-2-5.6-2h-18.3v23h3.8v-8.8h13.7c2.7,0,4.8-0.6,6.3-1.8
			c1.4-1.2,2.1-3,2.1-5.3C238.1,130.2,237.4,128.5,236,127.2z M229.7,136H216v-7.4h13.5c3.1,0,4.7,1.3,4.7,3.8
			C234.2,134.8,232.7,136,229.7,136z"/>
		<polygon id="XMLID_19_" class="st0" points="286.5,125.2 286.5,134.6 268,134.6 268,125.2 264.2,125.2 264.2,148.2 268,148.2 
			268,138 286.5,138 286.5,148.2 290.3,148.2 290.3,125.2 		"/>
		<polygon id="XMLID_18_" class="st0" points="339.4,125.2 339.4,148.2 361,148.2 361,144.8 343.2,144.8 343.2,125.2 		"/>
		<path id="XMLID_34_" class="st0" d="M402.1,125.2h-4.8l-12.2,23h4.2l2.7-5.2h15.5l2.7,5.2h4.2L402.1,125.2z M393.8,139.7l5.9-11.2
			l5.9,11.2H393.8z"/>
		<path id="XMLID_15_" class="st0" d="M463,140.5c0,2.4-1.2,4.3-3.5,5.8c-2.4,1.5-5.5,2.3-9.5,2.3s-7.2-0.8-9.6-2.3
			c-2.3-1.5-3.5-3.4-3.5-5.8v-15.6h3.8v14.7c0,1.8,0.8,3.2,2.4,4.1c1.6,1,3.9,1.4,6.9,1.4s5.3-0.5,6.9-1.4c1.6-1,2.3-2.3,2.3-4.1
			v-14.7h3.8L463,140.5L463,140.5z"/>
		<path id="XMLID_35_" class="st0" d="M510,139.3c1.8-0.3,3.2-1,4.3-2.1c1.1-1.2,1.7-2.7,1.7-4.7c0-2.2-0.7-4-2.1-5.3
			c-1.4-1.3-3.3-2-5.7-2H490v23h3.8v-8.8h11.6l6.2,8.8h4.4L510,139.3z M493.9,136v-7.4h13.4c3.2,0,4.8,1.3,4.8,3.8
			c0,2.4-1.5,3.6-4.4,3.6L493.9,136L493.9,136z"/>
		<polygon id="XMLID_11_" class="st0" points="543.9,125.2 543.9,148.2 568,148.2 568,144.8 547.7,144.8 547.7,138 561.2,138 
			561.2,134.6 547.7,134.6 547.7,128.6 567.1,128.6 567.1,125.2 		"/>
		<polygon id="XMLID_10_" class="st0" points="619.6,125.2 619.6,144.1 602,125.2 597.3,125.2 597.3,148.2 601.1,148.2 601.1,129.4 
			618.7,148.2 623.4,148.2 623.4,125.2 		"/>
	</g>
	<g id="XMLID_2_">
		<path id="XMLID_9_" class="st0" d="M76.6,64.4L76,90.7H0v-3h2.6c3.8,0,6.5-0.5,8-1.4c1.5-1,2.4-2.5,2.8-4.5
			c0.4-2,0.6-6.8,0.6-14.3v-44c0-7.1-0.2-11.7-0.6-13.8c-0.4-2.1-1.3-3.5-2.6-4.3C9.4,4.7,6.5,4.3,2,4.3H0v-3h42.9v3h-4
			c-4.4,0-7.3,0.4-8.6,1.1c-1.4,0.7-2.3,2.1-2.7,4.1c-0.5,2-0.7,6.7-0.7,14.1v46.8c0,6.5,0.2,10.5,0.5,12.1c0.4,1.6,1.3,2.9,2.9,3.8
			s4.9,1.3,10.1,1.3h6.8c5.5,0,9.6-0.5,12.2-1.4c2.7-1,5.2-3.1,7.6-6.3c2.4-3.3,4.6-8.4,6.6-15.5H76.6z"/>
		<path id="XMLID_3_" class="st0" d="M166.8,57.7h-34l-2.3,5.7c-3.4,8.2-5.2,13.6-5.2,16.1c0,2.7,0.9,4.7,2.7,6.1
			c1.8,1.4,4.2,2.1,7,2.1v3h-26.6v-3c4-0.6,6.9-2,8.8-4.2s4.3-6.8,7-13.8c0.2-0.7,1.3-3.2,3.2-7.6l26-62.1h2.6l30,71l4.1,9.4
			c0.9,2.1,2.2,3.8,3.7,5c1.6,1.2,3.9,2,7,2.3v3h-35.2v-3c4.3,0,7.2-0.3,8.7-1c1.5-0.6,2.3-1.9,2.3-3.8c0-1-1-3.8-3-8.6L166.8,57.7z
			 M165.7,54.7l-15.8-38.1l-15.8,38.1H165.7z"/>
		<path id="XMLID_6_" class="st0" d="M290,1.3h29.9v3c-4,0.3-6.9,1.2-8.9,2.7s-3.2,3.2-3.6,5.1s-0.7,5.6-0.7,11v29.7
			c0,7.6-0.3,13.3-0.9,16.9c-0.6,3.7-2.3,7.3-5.1,10.9c-2.8,3.6-6.8,6.4-12,8.5s-11.1,3.2-17.8,3.2c-7.9,0-14.7-1.4-20.2-4.1
			c-5.5-2.7-9.5-6.2-11.8-10.5c-2.4-4.3-3.5-10-3.5-17.2l0.1-9.2V23.5c0-7.1-0.2-11.7-0.6-13.8c-0.4-2.1-1.3-3.5-2.6-4.3
			s-4.3-1.2-8.8-1.2h-2.1v-3h40.8v3h-1.8c-4.4,0-7.3,0.4-8.6,1.1c-1.4,0.7-2.3,2.1-2.7,4.1c-0.5,2-0.7,6.7-0.7,14.1v28.2
			c0,9.8,0.4,16.7,1.4,20.8c0.9,4.1,3.4,7.7,7.6,10.7c4.2,3.1,9.7,4.6,16.7,4.6c5.5,0,10.4-1,14.9-3.1c4.5-2,7.8-4.6,10-7.6
			c2.2-3.1,3.5-6.2,4-9.4c0.5-3.2,0.7-8.3,0.7-15.3V21.9c0-5.1-0.3-8.6-0.9-10.6s-1.8-3.6-3.7-4.8c-1.9-1.2-4.9-1.9-9-2.2v-3H290z"
			/>
		<path id="XMLID_4_" class="st0" d="M447.5,90.7h-24.1c-4.3-3-10.8-10.8-19.6-23.5c-2.8-4-5.7-7.9-8.8-11.7c-3-3.7-5.1-6-6.3-6.8
			c-1.1-0.8-2.9-1.2-5.3-1.2h-3.6v19.9c0,7,0.2,11.6,0.5,13.8c0.3,2.2,1.2,3.8,2.6,4.8s4.2,1.6,8.2,1.6h4.3v3h-42.8v-3h2.9
			c3.8,0,6.5-0.5,7.9-1.4c1.5-1,2.4-2.5,2.8-4.5s0.6-6.8,0.6-14.3V23.5c0-7.1-0.2-11.7-0.6-13.8s-1.3-3.5-2.6-4.3
			c-1.4-0.8-4.3-1.2-8.8-1.2h-1.5v-3l12.8-0.7c8.5-0.4,15.3-0.6,20.3-0.6c8.5,0,15.5,0.8,20.8,2.4s9.7,4.2,13,7.8s5,7.9,5,12.9
			c0,5.9-2.2,10.8-6.5,15c-4.3,4.1-10.7,6.7-19,7.7c3.7,1.8,9.8,8.3,18.1,19.5c6.8,9.1,12.1,15.1,16,17.9s8.4,4.3,13.7,4.5V90.7z
			 M379.9,44.5c3.3-0.1,6.7-0.2,10.2-0.4s6.6-0.7,9.2-1.5s4.7-1.9,6.3-3.5c1.6-1.5,2.9-3.5,3.8-6s1.4-5.5,1.4-9.1
			c0-6.3-1.6-11.3-4.7-15.1c-3.2-3.8-10-5.7-20.5-5.7c-1.6,0-3.5,0.1-5.6,0.3L379.9,44.5L379.9,44.5z"/>
		<path id="XMLID_22_" class="st0" d="M546.3,62.9h3.2l-1.9,27.8h-74.1v-3h1.8c4.4,0,7.3-0.6,8.6-1.8c1.3-1.2,2.1-2.7,2.5-4.5
			c0.3-1.8,0.5-6.5,0.5-14V23.5c0-6.8-0.2-11.3-0.6-13.5c-0.4-2.1-1.2-3.6-2.6-4.5c-1.3-0.9-4.2-1.3-8.5-1.3v-3h63.9l2.1,22.3h-3.1
			c-1.4-6.2-3.1-10.7-5.2-13.3c-2-2.6-4.5-4.3-7.3-4.9c-2.8-0.7-7.3-1-13.6-1h-12.4v37.5h9.5c4.3,0,7.4-0.4,9.1-1.1
			c1.7-0.7,2.9-1.9,3.4-3.4s0.8-4.5,0.8-8.9h3.1V59h-3.1c0-5-0.4-8.3-1.3-10c-0.8-1.7-2.1-2.8-3.7-3.3c-1.6-0.5-4.3-0.8-8.1-0.8
			h-9.8v21.2c0,10.6,0.7,16.8,2,18.7c1.4,1.9,5,2.8,11,2.8h6.7c4.7,0,8.6-0.6,11.6-1.8c3-1.2,5.9-3.7,8.7-7.5
			C542.6,74.6,544.7,69.4,546.3,62.9"/>
		<path id="XMLID_29_" class="st0" d="M665.2,92.7L601.9,8.9V71c0,5.1,0.3,8.5,0.8,10.2c0.5,1.6,1.9,3.1,4.3,4.5
			c2.4,1.4,5.9,2,10.7,2v3h-33.4v-3c4.3-0.3,7.5-1.1,9.8-2.3c2.2-1.3,3.6-2.6,4-4.1s0.6-4.9,0.6-10.3V23.5c0-6.9-0.3-11.5-1-13.8
			c-0.6-2.3-1.7-3.8-3-4.5c-1.4-0.7-4.5-1-9.3-1v-3h26.4l53,70V17.7c0-3.9-0.4-6.7-1.2-8.3s-2.5-2.8-5-3.8c-2.5-0.9-5.5-1.4-9-1.4
			v-3H682v3c-3.8,0.3-6.8,1-8.9,2.2c-2.2,1.1-3.6,2.5-4.2,4.1c-0.6,1.6-0.9,4.3-0.9,8.1v74L665.2,92.7L665.2,92.7z"/>
	</g>
</g>
</svg>
